<svg width="18" height="18" viewBox="0 0 18 18" fill="none" xmlns="http://www.w3.org/2000/svg">
<path fill-rule="evenodd" clip-rule="evenodd" d="M9.64736 0.263511C9.47858 0.0947848 9.24971 0 9.01106 0C8.77241 0 8.54353 0.0947848 8.37476 0.263511L2.07476 6.56358L0.274759 8.3636C0.1888 8.44662 0.120236 8.54593 0.0730682 8.65574C0.0259001 8.76554 0.00107242 8.88364 3.3981e-05 9.00314C-0.00100445 9.12265 0.0217671 9.24116 0.0670199 9.35177C0.112273 9.46237 0.1791 9.56286 0.263604 9.64737C0.348107 9.73187 0.448594 9.7987 0.559201 9.84395C0.669807 9.88921 0.788319 9.91198 0.907821 9.91094C1.02732 9.9099 1.14542 9.88507 1.25522 9.8379C1.36503 9.79074 1.46434 9.72217 1.54736 9.63621L1.81106 9.37251V15.3C1.81106 16.0161 2.09552 16.7028 2.60187 17.2092C3.10822 17.7155 3.79497 18 4.51106 18H13.5111C14.2271 18 14.9139 17.7155 15.4202 17.2092C15.9266 16.7028 16.2111 16.0161 16.2111 15.3V9.37251L16.4748 9.63621C16.6445 9.80015 16.8718 9.89087 17.1078 9.88882C17.3438 9.88677 17.5695 9.79212 17.7364 9.62525C17.9033 9.45838 17.9979 9.23264 18 8.99667C18.002 8.76068 17.9113 8.53334 17.7474 8.3636L9.64736 0.263511Z" fill="white" fill-opacity="0.5"/>
</svg>
