<svg width="372" height="119" viewBox="0 0 372 119" fill="none" xmlns="http://www.w3.org/2000/svg">
<path fill-rule="evenodd" clip-rule="evenodd" d="M0.456055 0.140015H371.086V118.06H0.456055V0.140015Z" fill="#CC1626"/>
<path fill-rule="evenodd" clip-rule="evenodd" d="M49.346 59.48L66.196 42.63L49.356 25.78H61.936L78.786 42.63L61.936 59.48H49.346ZM27.166 59.48L44.016 42.63L27.166 25.78H39.746L56.596 42.63L39.746 59.48H27.166Z" fill="white"/>
<path fill-rule="evenodd" clip-rule="evenodd" d="M183.577 92.57C186.817 92.57 189.357 90.95 189.357 87.68C189.357 84.82 186.797 83.79 184.527 83.09L184.227 83C182.517 82.44 181.017 82 181.017 80.91C181.017 79.82 181.817 79.29 183.197 79.29C184.763 79.3888 186.276 79.8955 187.587 80.76L189.007 78.22C187.303 77.1077 185.321 76.4977 183.287 76.46C180.197 76.46 177.747 78.25 177.747 81.2C177.747 84.15 180.307 85.2 182.607 85.86L182.877 85.94C184.587 86.45 186.087 86.86 186.087 88.01C186.087 89.16 185.197 89.75 183.667 89.75C181.805 89.6705 180.018 88.9977 178.567 87.83L176.977 90.25C178.863 91.7248 181.182 92.5399 183.577 92.57ZM200.107 92.63C201.32 92.6665 202.526 92.423 203.631 91.9183C204.736 91.4137 205.709 90.6615 206.477 89.72L204.387 87.88C203.853 88.4688 203.202 88.9388 202.475 89.2592C201.748 89.5797 200.961 89.7435 200.167 89.74C199.049 89.777 197.96 89.382 197.125 88.6372C196.291 87.8923 195.776 86.8548 195.687 85.74H207.127C207.127 85.56 207.187 84.97 207.187 84.74C207.187 80.26 204.677 76.37 199.727 76.37C195.277 76.37 192.127 80.02 192.127 84.47C192.072 85.5406 192.24 86.6108 192.62 87.6134C192.999 88.616 193.582 89.5293 194.331 90.2957C195.081 91.0621 195.981 91.6651 196.975 92.0669C197.969 92.4686 199.035 92.6603 200.107 92.63ZM195.657 83.41C195.987 81 197.517 79.32 199.657 79.32C202.017 79.32 203.367 81.11 203.607 83.41H195.657ZM217.967 92.63C219.179 92.6687 220.385 92.4262 221.488 91.9213C222.591 91.4165 223.563 90.663 224.327 89.72L222.177 87.59C221.689 88.1868 221.08 88.6736 220.391 89.0183C219.701 89.363 218.947 89.5578 218.177 89.59C217.538 89.5802 216.909 89.4416 216.325 89.1825C215.742 88.9234 215.217 88.5492 214.782 88.0822C214.347 87.6153 214.01 87.0653 213.793 86.4652C213.575 85.8651 213.481 85.2273 213.517 84.59C213.517 81.82 215.407 79.59 217.997 79.59C218.77 79.6076 219.529 79.796 220.221 80.1418C220.912 80.4876 221.519 80.9821 221.997 81.59L224.207 79.2C223.438 78.3144 222.479 77.6136 221.403 77.1496C220.326 76.6856 219.158 76.4704 217.987 76.52C215.884 76.5938 213.891 77.4811 212.43 78.9949C210.968 80.5087 210.151 82.5307 210.151 84.635C210.151 86.7392 210.968 88.7612 212.43 90.275C213.891 91.7888 215.884 92.6761 217.987 92.75L217.967 92.63ZM232.967 92.63C233.946 92.6389 234.91 92.3905 235.763 91.9096C236.616 91.4288 237.327 90.7323 237.827 89.89V92.31H241.387V76.72H237.827V85.5C237.827 87.92 236.377 89.36 234.317 89.36C232.257 89.36 230.987 87.98 230.987 85.56V76.72H227.427V86.62C227.427 90.25 229.487 92.6 232.967 92.6V92.63ZM245.867 92.31H249.487V86.39C249.487 82.26 251.667 80.23 254.787 80.23H254.997V76.43C252.257 76.31 250.457 77.9 249.487 80.23V76.72H245.917L245.867 92.31ZM264.637 92.66C265.85 92.6965 267.056 92.453 268.161 91.9483C269.266 91.4437 270.239 90.6915 271.007 89.75L268.907 87.89C268.375 88.4786 267.725 88.9485 267 89.269C266.274 89.5895 265.49 89.7534 264.697 89.75C263.579 89.787 262.49 89.392 261.655 88.6472C260.821 87.9023 260.306 86.8648 260.217 85.75H271.647C271.647 85.57 271.707 84.98 271.707 84.75C271.707 80.27 269.207 76.38 264.257 76.38C259.807 76.38 256.657 80.03 256.657 84.48C256.604 85.5498 256.773 86.6189 257.153 87.6203C257.533 88.6217 258.116 89.5337 258.865 90.2991C259.615 91.0644 260.514 91.6665 261.507 92.0676C262.501 92.4688 263.566 92.6602 264.637 92.63V92.66ZM260.187 83.44C260.517 81.03 262.047 79.35 264.187 79.35C266.537 79.35 267.897 81.14 268.137 83.44H260.187ZM281.727 92.63C282.785 92.6357 283.827 92.3715 284.754 91.8623C285.681 91.3531 286.464 90.6157 287.027 89.72V92.31H290.597V70.77H287.027V79.14C286.431 78.2884 285.637 77.5941 284.714 77.1169C283.791 76.6396 282.766 76.3936 281.727 76.4C278.017 76.4 274.507 79.32 274.507 84.47C274.507 89.62 278.077 92.6 281.727 92.6V92.63ZM282.577 89.54C280.167 89.54 278.107 87.54 278.107 84.54C278.107 81.54 280.107 79.54 282.577 79.54C283.205 79.5599 283.823 79.7066 284.393 79.9712C284.964 80.2357 285.475 80.6128 285.896 81.0797C286.317 81.5466 286.64 82.0938 286.844 82.6884C287.049 83.283 287.131 83.9128 287.087 84.54C287.087 87.51 284.967 89.51 282.577 89.51V89.54ZM312.727 92.63C316.437 92.63 319.967 89.72 319.967 84.56C319.967 79.4 316.407 76.43 312.727 76.43C311.68 76.4304 310.651 76.6956 309.735 77.2009C308.819 77.7062 308.045 78.4352 307.487 79.32V70.77H303.887V92.28H307.487V89.88C308.073 90.725 308.857 91.4143 309.77 91.8883C310.683 92.3622 311.698 92.6065 312.727 92.6V92.63ZM311.897 89.54C310.57 89.54 309.299 89.0132 308.361 88.0755C307.423 87.1378 306.897 85.866 306.897 84.54C306.897 83.2139 307.423 81.9421 308.361 81.0044C309.299 80.0667 310.57 79.54 311.897 79.54C314.317 79.54 316.347 81.54 316.347 84.54C316.347 87.54 314.347 89.51 311.897 89.51V89.54ZM326.067 97.11C328.577 97.11 329.957 95.93 331.197 92.75L337.387 76.75H333.677L329.677 88.3L325.257 76.75H321.457L327.937 92.31C327.347 93.66 326.727 94.11 325.727 94.11C324.992 94.0902 324.273 93.8874 323.637 93.52L322.427 96.17C323.539 96.7874 324.794 97.1013 326.067 97.08V97.11Z" fill="white"/>
<path fill-rule="evenodd" clip-rule="evenodd" d="M129.006 54.42C130.653 54.375 132.241 53.7952 133.53 52.768C134.818 51.7408 135.738 50.3221 136.149 48.7262C136.56 47.1304 136.44 45.4441 135.808 43.9221C135.176 42.4002 134.066 41.1253 132.646 40.29C131.542 39.642 130.286 39.297 129.006 39.29C127.715 39.2873 126.447 39.6328 125.336 40.29C124.198 40.9665 123.26 41.9333 122.619 43.0912C121.978 44.2491 121.656 45.5567 121.686 46.88C121.659 47.858 121.828 48.8314 122.184 49.7427C122.54 50.654 123.075 51.4847 123.758 52.1858C124.44 52.8868 125.256 53.444 126.157 53.8243C127.059 54.2046 128.027 54.4004 129.006 54.4V54.42ZM95.8156 44V31.88H102.326C103.123 31.8701 103.915 32.0239 104.651 32.3318C105.387 32.6396 106.052 33.0951 106.606 33.67C107.186 34.2049 107.646 34.8566 107.956 35.5822C108.267 36.3079 108.42 37.091 108.406 37.88C108.393 39.4885 107.748 41.0274 106.61 42.1648C105.473 43.3022 103.934 43.9469 102.326 43.96H95.8156V44ZM95.8156 50.05H102.326C103.951 50.0456 105.558 49.7051 107.046 49.05C109.937 47.8214 112.244 45.5256 113.486 42.64C114.121 41.151 114.449 39.5489 114.449 37.93C114.449 36.3111 114.121 34.709 113.486 33.22C112.867 31.7942 111.985 30.4981 110.886 29.4C109.777 28.2996 108.471 27.4176 107.036 26.8C105.548 26.1449 103.941 25.8044 102.316 25.8H89.7656V59.4H95.7656L95.8156 50.05ZM136.816 56.52C135.757 57.6238 134.483 58.4986 133.072 59.0903C131.662 59.682 130.145 59.978 128.616 59.96C121.306 59.96 115.996 54.08 115.996 46.9C115.996 39.72 121.296 33.78 128.616 33.78C130.148 33.7689 131.666 34.072 133.076 34.6705C134.486 35.2691 135.759 36.1504 136.816 37.26V34.06H142.486V59.66H136.796L136.816 56.52ZM166.816 56.12C165.88 57.1835 164.72 58.0264 163.42 58.5884C162.12 59.1503 160.711 59.4173 159.296 59.37C151.826 59.37 148.106 54.22 148.106 47.09V34.09H153.846V46.8C153.846 51.05 155.566 53.8 160.036 53.8C164.856 53.8 166.866 50.33 166.866 45.8V34.07H172.486V56.07C172.486 63.74 167.736 69.07 159.916 69.07C155.905 69.1028 152.01 67.722 148.916 65.17L148.596 64.9L151.916 61.34L152.196 61.5C154.51 62.9879 157.204 63.7761 159.956 63.77C164.236 63.77 166.786 61.48 166.786 57.14L166.816 56.12Z" fill="white"/>
<path fill-rule="evenodd" clip-rule="evenodd" d="M264.316 40.99L264.496 40.64L264.556 40.53L264.736 40.2L264.796 40.1V40.03L264.866 39.91C264.926 39.83 264.976 39.74 265.026 39.66L265.106 39.54L265.186 39.42L265.486 39.01L265.586 38.88C266.77 37.3268 268.297 36.0677 270.047 35.2005C271.797 34.3333 273.723 33.8814 275.676 33.88H276.196C283.366 34.02 288.546 39.88 288.546 46.94C288.546 54 283.406 59.88 276.086 59.88C274.683 59.8865 273.295 59.5927 272.016 59.0183C270.736 58.444 269.594 57.6023 268.666 56.55V68.67H262.976V46.23C263.044 44.636 263.4 43.0674 264.026 41.6L264.076 41.48V41.4V41.27L264.136 41.16L264.316 40.99ZM178.206 25.79H184.266V59.35H178.216L178.206 25.79ZM192.536 42.61L206.536 59.44H198.536L185.056 42.62L198.536 25.79H206.536L192.536 42.61ZM211.656 48.48C211.856 52.48 215.086 54.57 218.976 54.57C221.707 54.5725 224.389 53.8365 226.736 52.44L227.016 52.28L230.196 55.7L229.846 55.97C226.758 58.4455 222.933 59.8213 218.976 59.88C211.296 59.88 205.756 54.52 205.756 46.81C205.756 39.28 211.056 33.7 218.676 33.7C223.826 33.7 227.966 36.17 230.016 40.91C230.94 43.2363 231.101 45.7961 230.476 48.22L230.386 48.5L211.656 48.48ZM239.876 48.48C240.076 52.48 243.306 54.56 247.196 54.56C249.929 54.5609 252.612 53.8288 254.966 52.44L255.236 52.28L258.416 55.7L258.066 55.97C254.977 58.4428 251.153 59.8183 247.196 59.88C239.516 59.88 233.976 54.52 233.976 46.81C233.976 39.28 239.276 33.7 246.896 33.7C252.046 33.7 256.186 36.17 258.246 40.91C259.165 43.2375 259.326 45.7956 258.706 48.22L258.616 48.5L239.876 48.48ZM297.986 48.48C298.186 52.48 301.416 54.57 305.306 54.57C308.036 54.5711 310.716 53.8389 313.066 52.45L313.346 52.29L316.486 55.7L316.136 55.96C313.06 58.4301 309.251 59.8089 305.306 59.88C297.626 59.88 292.086 54.52 292.086 46.81C292.086 39.28 297.386 33.69 305.006 33.69C310.156 33.69 314.296 36.16 316.346 40.91C317.27 43.2363 317.431 45.7961 316.806 48.22L316.716 48.49L297.986 48.48ZM268.626 46.8C268.626 57.22 282.966 56.34 282.966 46.8C282.966 37.26 268.626 36.37 268.626 46.79V46.8ZM211.986 43.93H225.146C225.043 43.4927 224.896 43.0671 224.706 42.66C224.18 41.523 223.33 40.5665 222.262 39.9102C221.195 39.2539 219.958 38.9268 218.706 38.97C217.294 38.917 215.9 39.3095 214.723 40.092C213.546 40.8744 212.644 42.0071 212.146 43.33C212.082 43.5271 212.029 43.7273 211.986 43.93ZM240.216 43.93H253.366C253.271 43.4874 253.123 43.0577 252.926 42.65C252.397 41.5157 251.546 40.562 250.479 39.9077C249.413 39.2534 248.177 38.9273 246.926 38.97C245.513 38.914 244.118 39.3053 242.94 40.0881C241.762 40.8709 240.862 42.0054 240.366 43.33C240.306 43.5272 240.256 43.7275 240.216 43.93ZM298.316 43.93H311.486C311.382 43.4899 311.234 43.0612 311.046 42.65C310.519 41.5141 309.669 40.5589 308.602 39.9043C307.534 39.2497 306.297 38.9246 305.046 38.97C303.634 38.9133 302.24 39.3031 301.062 40.084C299.885 40.8649 298.983 41.9973 298.486 43.32C298.419 43.5202 298.362 43.7239 298.316 43.93ZM327.106 37.4C328.25 36.187 329.641 35.2336 331.185 34.6039C332.729 33.9743 334.39 33.6831 336.056 33.75H337.386V39.45H334.926C329.436 39.45 327.156 43.19 327.156 48.29V59.56H321.266V34.03H327.106V37.4Z" fill="#FFCC00"/>
</svg>
