<svg width="241" height="79" viewBox="0 0 241 79" fill="none" xmlns="http://www.w3.org/2000/svg">
<path d="M157.026 0.100006C139.934 0.100006 124.659 8.96052 124.659 25.3273C124.659 44.099 151.749 45.3954 151.749 54.827C151.749 58.7982 147.199 62.3525 139.426 62.3525C128.396 62.3525 120.153 57.3861 120.153 57.3861L116.625 73.9047C116.625 73.9047 126.122 78.1 138.729 78.1C157.416 78.1 172.123 68.8057 172.123 52.157C172.123 32.3203 144.92 31.0624 144.92 22.3103C144.92 19.1994 148.655 15.7921 156.404 15.7921C165.149 15.7921 172.282 19.4042 172.282 19.4042L175.735 3.45192C175.735 3.45192 167.971 0.100006 157.024 0.100006H157.026ZM0.642986 1.30486L0.228516 3.71217C0.228516 3.71217 7.4191 5.02787 13.8964 7.65446C22.2364 10.6642 22.8292 12.4185 24.2341 17.8596L39.5382 76.8566H60.0545L91.6602 1.30486H71.1921L50.8831 52.6727L42.5961 9.1292C41.837 4.14591 37.9863 1.30245 33.2753 1.30245H0.645396L0.642986 1.30486ZM99.8918 1.30486L83.8359 76.8566H103.355L119.353 1.30486H99.8918ZM208.753 1.30486C204.047 1.30486 201.553 3.82542 199.724 8.22797L171.128 76.8566H191.596L195.555 65.4177H220.491L222.898 76.8566H240.959L225.204 1.30486H208.753ZM211.416 21.7175L217.483 50.0678H201.23L211.418 21.7175H211.416Z" fill="#1434CB"/>
</svg>
