<svg width="9" height="17" viewBox="0 0 9 17" fill="none" xmlns="http://www.w3.org/2000/svg">
<path d="M2.86271 1.91345C2.86271 2.7505 3.53235 3.42015 4.36941 3.42015C5.21673 3.42015 5.8761 2.7505 5.86583 1.91345C5.86583 1.06613 5.21673 0.396484 4.36941 0.396484C3.53235 0.396484 2.86271 1.06613 2.86271 1.91345ZM0.268066 15.746C0.268066 16.2585 0.634138 16.6036 1.1886 16.6036H7.81182C8.36628 16.6036 8.7328 16.2585 8.7328 15.7456C8.7328 15.2438 8.36673 14.8983 7.81182 14.8983H5.70869V6.91479C5.70869 6.35006 5.34262 5.97282 4.79842 5.97282H1.48146C0.937709 5.97282 0.571191 6.30765 0.571191 6.81032C0.571191 7.33354 0.937263 7.67863 1.48191 7.67863H3.77298V14.8983H1.1886C0.634138 14.8983 0.268066 15.2438 0.268066 15.746Z" fill="white" fill-opacity="0.9"/>
</svg>
