<svg width="190" height="117" viewBox="0 0 190 117" fill="none" xmlns="http://www.w3.org/2000/svg">
<g clip-path="url(#clip0_1100_1407)">
<path d="M120.042 12.4975H69.2969V103.699H120.042V12.4975Z" fill="#FF5F00"/>
<path d="M72.6449 58.0992C72.6369 49.3156 74.6277 40.6453 78.4665 32.7449C82.3052 24.8445 87.8913 17.9212 94.8017 12.4993C86.2456 5.7743 75.97 1.59225 65.1495 0.431097C54.3289 -0.730059 43.4 1.17651 33.6118 5.93293C23.8236 10.6893 15.571 18.1037 9.79738 27.3285C4.02373 36.5533 0.961914 47.2165 0.961914 58.0992C0.961914 68.9818 4.02373 79.6449 9.79738 88.8698C15.571 98.0946 23.8236 105.509 33.6118 110.265C43.4 115.022 54.3289 116.928 65.1495 115.767C75.97 114.606 86.2456 110.424 94.8017 103.699C87.8913 98.2771 82.3053 91.3538 78.4665 83.4534C74.6277 75.553 72.6369 66.8828 72.6449 58.0992Z" fill="#EB001B"/>
<path d="M130.644 0.100045C117.641 0.0798842 105.012 4.4487 94.8008 12.4993C101.705 17.9266 107.287 24.8511 111.125 32.7502C114.964 40.6493 116.958 49.3169 116.958 58.0992C116.958 66.8815 114.964 75.5491 111.125 83.4482C107.287 91.3474 101.705 98.2718 94.8008 103.699C102.07 109.413 110.599 113.306 119.678 115.054C128.757 116.802 138.123 116.354 146.993 113.748C155.864 111.142 163.983 106.452 170.674 100.071C177.365 93.6899 182.433 85.8017 185.456 77.0641C188.479 68.3265 189.369 58.9929 188.053 49.8413C186.736 40.6898 183.251 31.9856 177.888 24.4545C172.524 16.9234 165.438 10.7836 157.22 6.5471C149.002 2.3106 139.89 0.100146 130.644 0.100045Z" fill="#F79E1B"/>
</g>
<defs>
<clipPath id="clip0_1100_1407">
<rect width="188.497" height="116" fill="white" transform="translate(0.958984 0.100006)"/>
</clipPath>
</defs>
</svg>
