<svg width="21" height="16" viewBox="0 0 21 16" fill="none" xmlns="http://www.w3.org/2000/svg">
<path d="M0 1.19997C0 0.881718 0.118526 0.576501 0.329505 0.351463C0.540483 0.126425 0.826631 0 1.125 0H17.625C17.9234 0 18.2095 0.126425 18.4205 0.351463C18.6315 0.576501 18.75 0.881718 18.75 1.19997C18.75 1.51822 18.6315 1.82344 18.4205 2.04848C18.2095 2.27351 17.9234 2.39994 17.625 2.39994H1.125C0.826631 2.39994 0.540483 2.27351 0.329505 2.04848C0.118526 1.82344 0 1.51822 0 1.19997ZM9.75 6.39984H1.125C0.826631 6.39984 0.540483 6.52626 0.329505 6.7513C0.118526 6.97634 0 7.28156 0 7.59981C0 7.91806 0.118526 8.22328 0.329505 8.44831C0.540483 8.67335 0.826631 8.79978 1.125 8.79978H9.75C10.0484 8.79978 10.3345 8.67335 10.5455 8.44831C10.7565 8.22328 10.875 7.91806 10.875 7.59981C10.875 7.28156 10.7565 6.97634 10.5455 6.7513C10.3345 6.52626 10.0484 6.39984 9.75 6.39984ZM9.75 12.7997H1.125C0.826631 12.7997 0.540483 12.9261 0.329505 13.1511C0.118526 13.3762 0 13.6814 0 13.9996C0 14.3179 0.118526 14.6231 0.329505 14.8482C0.540483 15.0732 0.826631 15.1996 1.125 15.1996H9.75C10.0484 15.1996 10.3345 15.0732 10.5455 14.8482C10.7565 14.6231 10.875 14.3179 10.875 13.9996C10.875 13.6814 10.7565 13.3762 10.5455 13.1511C10.3345 12.9261 10.0484 12.7997 9.75 12.7997ZM21 10.7997C21.0001 11.0033 20.9516 11.2036 20.8591 11.3817C20.7666 11.5597 20.6331 11.7098 20.4713 11.8177L14.4713 15.8176C14.3009 15.9311 14.1052 15.994 13.9044 15.9996C13.7037 16.0052 13.5051 15.9534 13.3295 15.8495C13.1538 15.7456 13.0074 15.5934 12.9055 15.4088C12.8036 15.2242 12.7499 15.0139 12.75 14.7996V6.79983C12.7499 6.58559 12.8036 6.37525 12.9055 6.19063C13.0074 6.00602 13.1538 5.85386 13.3295 5.74998C13.5051 5.64609 13.7037 5.59426 13.9044 5.59987C14.1052 5.60547 14.3009 5.66831 14.4713 5.78185L20.4713 9.78175C20.6331 9.88966 20.7666 10.0397 20.8591 10.2178C20.9516 10.3959 21.0001 10.5961 21 10.7997ZM17.7525 10.7997L15 8.96477V12.6347L17.7525 10.7997Z" fill="white" fill-opacity="0.5"/>
</svg>
