<svg width="273" height="79" viewBox="0 0 273 79" fill="none" xmlns="http://www.w3.org/2000/svg">
<g clip-path="url(#clip0_1100_1411)">
<path d="M263 7.99839C258.219 3.6342 251.94 0.915344 244.948 0.915344H192.505C192.576 2.99009 192.933 4.92188 193.361 6.85367C193.504 7.28308 193.575 7.71249 193.718 8.1419C193.789 8.28485 193.789 8.49956 193.861 8.64251C198.213 22.4515 211.128 32.5399 226.325 32.5399H271.348C271.633 30.9657 271.776 29.3916 271.776 27.8175C271.776 19.9473 268.351 12.9355 263 7.99839Z" fill="url(#paint0_linear_1100_1411)"/>
<path d="M193.577 37.191V77.2586H217.979V54.7207H242.525C255.368 54.7207 266.284 47.4229 270.494 37.191H193.577Z" fill="#006848"/>
<path d="M150.408 9.00017L133.356 46.0624H131.643V0.915344H107.384V77.3293H127.933C133.356 77.3293 138.279 74.181 140.491 69.2444L157.544 32.1822H159.256V77.3293H183.515V0.915344H162.966C157.544 0.915344 152.692 4.06361 150.408 9.00017Z" fill="#006848"/>
<path d="M37.5307 10.932L47.6626 46.0624H49.375L59.4354 10.932C61.1482 4.99363 66.5707 0.915344 72.7781 0.915344H96.9662V77.3293H72.7069V32.1822H70.9947L57.1525 77.3293H39.814L25.9718 32.1822H24.2594V77.3293H0V0.915344H24.188C30.3956 0.915344 35.8183 4.99363 37.5307 10.932Z" fill="#006848"/>
</g>
<defs>
<linearGradient id="paint0_linear_1100_1411" x1="192.472" y1="16.7485" x2="271.751" y2="16.7485" gradientUnits="userSpaceOnUse">
<stop offset="0.00537635" stop-color="#00AFFF"/>
<stop offset="1" stop-color="#1F5BD7"/>
</linearGradient>
<clipPath id="clip0_1100_1411">
<rect width="272.049" height="78" fill="white" transform="translate(0 0.100006)"/>
</clipPath>
</defs>
</svg>
