<svg width="216" height="117" viewBox="0 0 216 117" fill="none" xmlns="http://www.w3.org/2000/svg">
<g clip-path="url(#clip0_1100_1418)">
<path d="M29.2412 58.0895L14.0989 66.82L0.0488281 91.1498L57.3627 58.0895H29.2412Z" fill="#874691"/>
<path d="M72.5053 33.1604L57.363 41.8909L43.313 66.2207L100.605 33.1604H72.5053Z" fill="#DA1844"/>
<path d="M57.363 24.4298L43.313 0.100006V49.9793V66.2207V116.1L57.363 91.7702V24.4298Z" fill="#F9B229"/>
<path d="M43.313 0.100006L57.363 24.4298L72.5053 33.1603H100.605L43.313 0.100006Z" fill="#F07F1A"/>
<path d="M43.313 49.9793V116.1L57.363 91.7701V74.2878L43.313 49.9793Z" fill="#72B22C"/>
<path d="M72.5053 83.0396L57.363 91.7702L43.313 116.1L100.605 83.0396H72.5053Z" fill="#00743E"/>
<path d="M0.0488281 25.0291V91.1498L14.0989 66.82V49.359L0.0488281 25.0291Z" fill="#5F5A94"/>
<path d="M43.3127 49.9795V50.0009L0.0488281 25.0291L14.0989 49.359L72.5051 83.0399H100.605L43.3127 49.9795Z" fill="#0D90CD"/>
<path d="M214.697 43.6485V73.4135H204.245V52.5074H194.157V73.4135H183.706V43.6485H214.697Z" fill="#1B0A40"/>
<path d="M178.544 59.4833C178.694 68.0427 171.713 74.2696 161.818 74.2696C152.436 74.2696 144.533 68.5991 144.533 54.7971C144.533 43.0708 152.029 33.3989 163.102 33.2277H178.544L173.64 42.0438H164.216C161.882 41.9682 159.604 42.7564 157.817 44.2573C156.03 45.7581 154.862 47.8657 154.535 50.175C157.511 47.6263 161.325 46.2692 165.244 46.3662C168.737 46.4193 172.075 47.8133 174.568 50.2595C177.061 52.7056 178.515 56.0162 178.629 59.5047M168.179 60.1895C168.192 59.3667 168.042 58.5491 167.736 57.785C167.43 57.021 166.974 56.3256 166.395 55.7396C165.818 55.1537 165.128 54.6892 164.367 54.373C163.607 54.0567 162.791 53.8954 161.967 53.8984C161.117 53.8778 160.273 54.0299 159.484 54.3452C158.695 54.6606 157.979 55.1327 157.378 55.7329C156.777 56.3331 156.305 57.0491 155.989 57.8372C155.674 58.6253 155.521 59.4692 155.541 60.3179C155.574 61.9255 156.223 63.4594 157.356 64.6023C158.487 65.7453 160.015 66.41 161.625 66.4591C162.457 66.4819 163.285 66.3385 164.061 66.0375C164.836 65.7364 165.544 65.2836 166.142 64.7056C166.741 64.1277 167.218 63.4362 167.545 62.6717C167.872 61.9073 168.044 61.0852 168.049 60.2537" fill="#1B0A40"/>
<path d="M136.458 63.2494C133.987 64.7499 131.147 65.5352 128.255 65.5176C126.418 65.4568 124.676 64.6874 123.394 63.3708C122.112 62.0544 121.39 60.2929 121.38 58.4562C121.391 56.616 122.115 54.8516 123.402 53.5344C124.688 52.2173 126.436 51.4502 128.277 51.3948C131.164 51.3629 134.001 52.1494 136.458 53.663L140.356 46.6444C137.068 44.0999 133.014 42.7424 128.855 42.7927C118.639 42.7927 111.614 51.0952 111.614 58.4562C111.614 67.0155 119.41 74.2268 128.748 74.2696C132.947 74.3416 137.043 72.9748 140.356 70.3965L136.458 63.2494Z" fill="#1B0A40"/>
</g>
<defs>
<clipPath id="clip0_1100_1418">
<rect width="215.18" height="116" fill="white" transform="translate(0.0488281 0.100006)"/>
</clipPath>
</defs>
</svg>
