<svg width="24" height="19" viewBox="0 0 24 19" fill="none" xmlns="http://www.w3.org/2000/svg">
<g opacity="0.95">
<path d="M0 1.40625C0 1.03329 0.145392 0.675604 0.404193 0.411881C0.662993 0.148158 1.014 0 1.38 0H21.62C21.986 0 22.337 0.148158 22.5958 0.411881C22.8546 0.675604 23 1.03329 23 1.40625C23 1.77921 22.8546 2.1369 22.5958 2.40062C22.337 2.66434 21.986 2.8125 21.62 2.8125H1.38C1.014 2.8125 0.662993 2.66434 0.404193 2.40062C0.145392 2.1369 0 1.77921 0 1.40625ZM11.96 7.5H1.38C1.014 7.5 0.662993 7.64816 0.404193 7.91188C0.145392 8.1756 0 8.53329 0 8.90625C0 9.27921 0.145392 9.63689 0.404193 9.90062C0.662993 10.1643 1.014 10.3125 1.38 10.3125H11.96C12.326 10.3125 12.677 10.1643 12.9358 9.90062C13.1946 9.63689 13.34 9.27921 13.34 8.90625C13.34 8.53329 13.1946 8.1756 12.9358 7.91188C12.677 7.64816 12.326 7.5 11.96 7.5ZM11.96 15H1.38C1.014 15 0.662993 15.1482 0.404193 15.4119C0.145392 15.6756 0 16.0333 0 16.4062C0 16.7792 0.145392 17.1369 0.404193 17.4006C0.662993 17.6643 1.014 17.8125 1.38 17.8125H11.96C12.326 17.8125 12.677 17.6643 12.9358 17.4006C13.1946 17.1369 13.34 16.7792 13.34 16.4062C13.34 16.0333 13.1946 15.6756 12.9358 15.4119C12.677 15.1482 12.326 15 11.96 15Z" fill="white"/>
<path d="M15.7368 11.3128H23" stroke="white" stroke-width="2" stroke-linecap="round" stroke-linejoin="round"/>
</g>
</svg>
