<svg width="393" height="60" viewBox="0 0 393 60" fill="none" xmlns="http://www.w3.org/2000/svg">
<g filter="url(#filter0_d_797_433)">
<path d="M41.9887 37.782L28.9036 49.2368L23.4861 43.5537L22.308 17.1361L28.5684 11.6557L43.1389 26.9408L46.3838 24.1003L51.494 29.4611L48.2492 32.3016L52.6802 36.9499L46.4197 42.4303L41.9887 37.782ZM36.8785 32.4212L29.4234 24.6005L29.9656 38.4728L36.8785 32.4212Z" fill="white"/>
<path d="M51.0113 37.782L64.0964 49.2369L69.5139 43.5537L70.692 17.1361L64.4316 11.6557L49.8611 26.9408L46.6162 24.1003L41.506 29.4611L44.7508 32.3016L40.3198 36.9499L46.5803 42.4303L51.0113 37.782ZM56.1215 32.4212L63.5766 24.6005L63.0344 38.4728L56.1215 32.4212Z" fill="white"/>
<path d="M137.74 34.2266V38.4805H119.318L119.02 35.1406L129.496 18.4062H133.838L129.127 26.2109L124.363 34.2266H137.74ZM134.998 18.4062V44H129.514V18.4062H134.998ZM185.025 28.707V33.1367H171.771V28.707H185.025ZM173.582 18.4062V44H167.852V18.4062H173.582ZM188.98 18.4062V44H183.268V18.4062H188.98ZM219.637 39.5703V44H206.014V39.5703H219.637ZM207.965 18.4062V44H202.234V18.4062H207.965ZM217.879 28.707V32.9961H206.014V28.707H217.879ZM219.654 18.4062V22.8535H206.014V18.4062H219.654ZM248.465 18.4062V22.8535H237.145V44H231.432V18.4062H248.465ZM235.105 27.4766H240.836C242.875 27.4766 244.645 27.8164 246.145 28.4961C247.645 29.1758 248.799 30.1309 249.607 31.3613C250.416 32.5801 250.82 34.0098 250.82 35.6504C250.82 36.8809 250.586 38.0059 250.117 39.0254C249.66 40.0449 248.992 40.9297 248.113 41.6797C247.246 42.418 246.197 42.9922 244.967 43.4023C243.748 43.8008 242.371 44 240.836 44H231.449V18.4062H237.197V39.5703H240.836C241.773 39.5703 242.559 39.3945 243.191 39.043C243.824 38.6797 244.299 38.1992 244.615 37.6016C244.943 37.0039 245.107 36.3418 245.107 35.6152C245.107 34.9004 244.943 34.2676 244.615 33.7168C244.299 33.1543 243.824 32.7148 243.191 32.3984C242.559 32.0703 241.773 31.9062 240.836 31.9062H235.105V27.4766ZM273.619 23.2754L267.01 44H260.893L270.367 18.4062H274.234L273.619 23.2754ZM279.104 44L272.477 23.2754L271.791 18.4062H275.711L285.221 44H279.104ZM278.822 34.4727V38.9023H265.48V34.4727H278.822ZM323.77 38.3223L329.465 18.4062H335.846L327.074 44H322.908L323.77 38.3223ZM318.584 18.4062L324.262 38.3223L325.158 44H320.939L312.221 18.4062H318.584ZM346.973 18.4062H356.799C358.756 18.4062 360.449 18.6992 361.879 19.2852C363.32 19.8711 364.428 20.7383 365.201 21.8867C365.975 23.0352 366.361 24.4531 366.361 26.1406C366.361 27.5469 366.133 28.7422 365.676 29.7266C365.219 30.7109 364.574 31.5254 363.742 32.1699C362.922 32.8145 361.961 33.3359 360.859 33.7344L358.996 34.7539H350.629L350.594 30.3066H356.816C357.672 30.3066 358.381 30.1543 358.943 29.8496C359.506 29.5449 359.928 29.1172 360.209 28.5664C360.502 28.0039 360.648 27.3477 360.648 26.5977C360.648 25.8242 360.502 25.1562 360.209 24.5938C359.916 24.0312 359.482 23.6035 358.908 23.3105C358.346 23.0059 357.643 22.8535 356.799 22.8535H352.703V44H346.973V18.4062ZM361.141 44L355.393 32.627L361.439 32.6094L367.275 43.7363V44H361.141Z" fill="white"/>
</g>
<defs>
<filter id="filter0_d_797_433" x="9.22656" y="6.31641" width="360.047" height="47.5703" filterUnits="userSpaceOnUse" color-interpolation-filters="sRGB">
<feFlood flood-opacity="0" result="BackgroundImageFix"/>
<feColorMatrix in="SourceAlpha" type="matrix" values="0 0 0 0 0 0 0 0 0 0 0 0 0 0 0 0 0 0 127 0" result="hardAlpha"/>
<feOffset dx="1" dy="-1.5"/>
<feGaussianBlur stdDeviation="0.5"/>
<feComposite in2="hardAlpha" operator="out"/>
<feColorMatrix type="matrix" values="0 0 0 0 0 0 0 0 0 0 0 0 0 0 0 0 0 0 0.25 0"/>
<feBlend mode="normal" in2="BackgroundImageFix" result="effect1_dropShadow_797_433"/>
<feBlend mode="normal" in="SourceGraphic" in2="effect1_dropShadow_797_433" result="shape"/>
</filter>
</defs>
</svg>
